<svg xmlns="http://www.w3.org/2000/svg" viewBox="0 0 64 64" width="64" height="64"><circle cx="32" cy="32" r="30" fill="#25D366"/><path d="M32 14c-9.9 0-18 8.1-18 18 0 3.2.8 6.2 2.3 8.8L14 50l9.4-2.5c2.6 1.4 5.5 2.2 8.6 2.2 9.9 0 18-8.1 18-18s-8.1-17.7-18-17.7zm10.4 25.4c-.4 1.2-2.2 2.3-3.2 2.4-.8.1-1.8.1-2.9-.2-.7-.2-1.5-.5-2.6-1-4.6-2-7.6-6.6-7.8-6.9-.2-.3-1.9-2.5-1.9-4.8s1.2-3.4 1.6-3.9c.4-.5.9-.6 1.2-.6h.9c.3 0 .7-.1 1.1.8.4 1 1.4 3.4 1.5 3.6.1.2.2.5 0 .8-.1.3-.2.5-.4.8l-.6.7c-.2.2-.4.4-.2.8.2.4 1 1.7 2.2 2.7 1.5 1.3 2.7 1.7 3.1 1.9.4.2.6.2.8-.1.2-.3.9-1.1 1.2-1.5.2-.4.5-.3.8-.2.3.1 2.1 1 2.5 1.2.4.2.6.3.7.4.1.3.1 1-.3 2.1z" fill="#fff"/></svg>
